<?xml version="1.0" standalone="no"?>
<!DOCTYPE svg PUBLIC "-//W3C//DTD SVG 1.0//EN" "http://www.w3.org/TR/2001/REC-SVG-20010904/DTD/svg10.dtd">
<svg xmlns="http://www.w3.org/2000/svg" xmlns:xlink="http://www.w3.org/1999/xlink" id="body_1" width="32" height="32">

<g transform="matrix(0.16 0 0 0.16 0 0)">
<g transform="matrix(0.1 0 -0 -0.1 0 200)">
<path d="M755 1709C 644 1695 567 1663 490 1601C 432 1554 417 1537 380 1467C 257 1239 345 923 605 665C 841 430 1172 287 1480 287C 1579 286 1714 308 1637 311C 1622 312 1607 313 1603 314C 1598 315 1575 320 1550 324C 1439 343 1296 392 1177 451C 872 603 627 875 556 1141C 547 1174 542 1232 544 1290C 545 1373 550 1393 577 1452C 594 1488 628 1537 652 1561C 696 1605 790 1654 850 1665C 869 1668 894 1673 905 1675C 916 1677 950 1679 980 1680L980 1680L1035 1682L985 1696C 926 1712 825 1718 755 1709z" stroke="none" fill="#9a45e5" fill-rule="nonzero" />
</g>
</g>
</svg>
