<?xml version="1.0" standalone="no"?>
<!DOCTYPE svg PUBLIC "-//W3C//DTD SVG 20010904//EN" "http://www.w3.org/TR/2001/REC-SVG-20010904/DTD/svg10.dtd">
<svg version="1.0" xmlns="http://www.w3.org/2000/svg" width="200.000000pt" height="200.000000pt" viewBox="0 0 200.000000 200.000000" preserveAspectRatio="xMidYMid meet">
<metadata>
Created by potrace 1.14, written by Peter Selinger 2001-2017
</metadata>
<g transform="translate(0.000000,200.000000) scale(0.100000,-0.100000)"
fill="#000000" stroke="none">
<path d="M755 1709 c-111 -14 -188 -46 -265 -108 -58 -47 -73 -64 -110 -134
-123 -228 -35 -544 225 -802 236 -235 567 -378 875 -378 99 -1 234 21 157 24
-15 1 -30 2 -34 3 -5 1 -28 6 -53 10 -111 19 -254 68 -373 127 -305 152 -550
424 -621 690 -9 33 -14 91 -12 149 1 83 6 103 33 162 17 36 51 85 75 109 44
44 138 93 198 104 19 3 44 8 55 10 11 2 45 4 75 5 l55 2 -50 14 c-59 16 -160
22 -230 13z"/>
</g>
</svg>
