<svg width="112" height="30" viewBox="0 0 112 30" fill="none" xmlns="http://www.w3.org/2000/svg">
<g clip-path="url(#clip0_401_1411)">
<path fill-rule="evenodd" clip-rule="evenodd" d="M78.9222 20.4876H79.8559C80.4242 20.4803 80.9648 20.721 81.3357 21.1459C81.7102 21.5709 81.9077 22.118 81.8892 22.6815C81.8984 23.3052 81.6217 23.8997 81.1364 24.2973C80.6548 24.6894 80.0459 24.8955 79.4222 24.8754H78.9259C77.8889 24.8864 76.8704 24.6 75.994 24.0511C75.1304 23.5058 74.4311 22.7435 73.9643 21.8426C73.468 20.8906 73.2152 19.8329 73.2262 18.7624V12.8754H72.8056C72.2502 12.8937 71.7077 12.6967 71.2962 12.3283C70.8885 11.9636 70.6597 11.4438 70.667 10.9004C70.6541 10.3368 70.8866 9.79518 71.3073 9.41403C71.7206 9.04564 72.2612 8.84868 72.8166 8.86692H73.2373V5.78302C73.2373 4.57026 74.2319 3.58728 75.4589 3.58728C76.6859 3.58728 77.6804 4.57026 77.6804 5.78302V8.87056H79.1695C79.7249 8.85415 80.2655 9.04929 80.6788 9.41768C81.0939 9.80065 81.3227 10.3405 81.308 10.9022C81.3154 11.4456 81.0847 11.9654 80.6788 12.3301C80.2655 12.6985 79.7249 12.8937 79.1695 12.8773H77.673V18.7642C77.6509 19.231 77.8004 19.6906 78.0901 20.0608C78.2801 20.3289 78.5901 20.4876 78.9222 20.4876ZM53.1603 17.8268C53.5626 17.4475 53.7859 16.9186 53.7766 16.3678C53.7766 15.9028 53.7489 15.4359 53.6917 14.9745L53.629 14.5533C53.4925 13.7435 53.2415 12.9557 52.8799 12.2153C52.2931 11.0043 51.3669 9.98669 50.21 9.28456C49.0512 8.57878 47.66 8.22134 46.0769 8.22134C44.5786 8.1958 43.1025 8.56784 41.798 9.29732C40.558 10.0067 39.5395 11.039 38.855 12.2827C38.1354 13.6159 37.7719 15.1077 37.7996 16.6177C37.7737 18.1332 38.1612 19.6268 38.9196 20.9435C39.6595 22.1982 40.7315 23.2286 42.0231 23.9216C44.3018 25.1162 46.981 25.3204 49.4166 24.4833C50.3447 24.1897 51.2137 23.7411 51.9868 23.1575C52.4943 22.8037 52.7858 22.2183 52.7581 21.6037C52.712 21.0201 52.4241 20.4821 51.9629 20.1156C51.5735 19.7818 51.0698 19.6104 50.555 19.6323C50.0568 19.6469 49.5752 19.8146 49.1785 20.1119C48.804 20.3709 48.3925 20.5733 47.9571 20.7137C47.4847 20.8852 46.9847 20.9764 46.4809 20.98C45.6562 20.9964 44.8406 20.7995 44.1173 20.4074C43.4568 20.0444 42.9069 19.5101 42.5305 18.8627C42.4419 18.715 42.3644 18.5618 42.298 18.4031H51.6639C52.2193 18.414 52.7581 18.2061 53.1603 17.8268ZM42.4585 14.2961C42.7556 13.6669 43.2353 13.1399 43.835 12.7806C44.5159 12.3958 45.2908 12.2061 46.075 12.2335C47.3869 12.1642 48.6047 12.901 49.1416 14.0864C49.2173 14.2414 49.2837 14.4019 49.3391 14.5642H42.3441C42.3792 14.4675 42.4179 14.3818 42.4604 14.2961H42.4585ZM64.6925 16.7599L68.4234 11.9289C68.7777 11.5058 68.9825 10.9806 69.0083 10.4317C69.0305 9.91192 68.8589 9.40311 68.5286 8.99825C68.1429 8.54414 67.5654 8.29429 66.9657 8.32347C66.6724 8.32165 66.3808 8.37271 66.1077 8.47667C65.7738 8.6098 65.4841 8.83046 65.2664 9.11496L61.8547 13.6013L58.9781 16.6305L55.1421 21.3812C54.7878 21.8007 54.5885 22.3259 54.5774 22.873C54.5719 23.3891 54.7638 23.8888 55.1181 24.2682C55.5019 24.673 56.0443 24.8955 56.6071 24.8773C57.2178 24.8791 57.8028 24.6256 58.2142 24.1788L61.7809 19.749L64.6925 16.7599ZM95.7628 10.9988C95.892 10.5082 95.9363 9.57633 94.7904 8.82861C94.1022 8.37815 93.1446 8.15931 91.8622 8.15931C90.6592 8.15019 89.4727 8.44928 88.421 9.02922C88.2199 9.14046 88.0243 9.26083 87.8379 9.39396C87.7494 9.21523 87.6313 9.05292 87.4892 8.9125C87.0962 8.52587 86.5482 8.32891 85.86 8.32891C84.7123 8.25414 83.7214 9.11493 83.6458 10.2493C83.6402 10.3386 83.6402 10.428 83.6458 10.5174V22.6815C83.6458 23.3672 83.8543 23.9125 84.2639 24.3028C84.6994 24.6967 85.2769 24.9046 85.8673 24.8754C86.563 24.8754 87.1147 24.6712 87.5077 24.2663C87.9062 23.8359 88.1166 23.2651 88.087 22.6815V14.7374C88.063 14.1867 88.2697 13.6487 88.659 13.2529C89.1554 12.7915 89.779 12.4833 90.4507 12.3684C91.3769 12.1952 92.3309 12.2134 93.2497 12.4195C93.5763 12.4997 93.9177 12.5107 94.2498 12.4541C94.6022 12.3921 94.9288 12.2353 95.1945 12C95.4897 11.7356 95.689 11.3854 95.7628 10.9988ZM103.114 8.18853C107.765 7.93686 111.745 11.4603 112 16.0597V22.6834C112 23.2706 111.766 23.8341 111.349 24.2518C110.476 25.1235 109.053 25.129 108.171 24.2663C107.946 24.0475 107.773 23.7812 107.666 23.4876C107.487 23.6171 107.302 23.7429 107.112 23.8651C104.618 25.3624 101.488 25.3624 98.9936 23.8651C97.8053 23.1247 96.8348 22.087 96.1798 20.8597C95.486 19.5502 95.1354 18.0913 95.1576 16.6141C95.1373 15.1132 95.5229 13.636 96.2757 12.332C97.7039 9.89917 100.274 8.34172 103.114 8.18853ZM105.666 20.3253C106.273 19.9587 106.767 19.4372 107.097 18.8153H107.088C107.454 18.1442 107.64 17.391 107.631 16.6287C107.646 15.8536 107.461 15.0876 107.097 14.4001C106.767 13.7782 106.271 13.2548 105.664 12.8901C104.389 12.1624 102.82 12.1624 101.545 12.8901C100.929 13.2566 100.425 13.7782 100.084 14.4037C99.7132 15.0858 99.5269 15.8499 99.5435 16.625C99.5306 17.3891 99.7169 18.1423 100.084 18.8135C100.425 19.4372 100.929 19.9606 101.545 20.3253C102.82 21.053 104.391 21.053 105.666 20.3253Z" fill="white"/>
<path d="M84.0904 29.5404L84.2085 29.5149H83.8949C68.0617 27.9866 56.6938 13.3806 61.3841 4.87662C64.0448 0.0237368 70.7962 0.725864 70.7962 0.725864L70.3958 0.543494L70.4881 0.530728C68.1872 -0.10757 65.7627 -0.1714 63.4322 0.348357C62.1905 0.638326 61.0114 1.14167 59.9486 1.83833C58.8305 2.5824 57.8931 3.55991 57.1994 4.70155C56.8469 5.28331 56.5573 5.89972 56.334 6.54167C56.1218 7.18361 55.9723 7.8438 55.8893 8.51492C55.7343 9.82617 55.7971 11.152 56.0738 12.4432C56.6071 14.98 57.7898 17.2359 59.2272 19.2256C62.1462 23.1921 66.176 26.1082 70.5582 27.9684C72.7502 28.9022 75.0622 29.5313 77.4276 29.8359C79.6584 30.1058 81.9445 30.0693 84.0868 29.5332L84.0904 29.5404Z" fill="#9A45E5"/>
<path fill-rule="evenodd" clip-rule="evenodd" d="M4.39143 5.89975H0V1.92224H12.9916V5.89975H8.94339V20.969H12.9916V24.9466H0V20.969H4.39143V5.89975ZM26.3523 2.96359C27.535 3.62377 28.5093 4.59581 29.1643 5.7721C29.847 7.02134 30.192 8.42377 30.1662 9.84444C30.1884 11.225 29.8415 12.5873 29.1606 13.7946C28.4982 14.949 27.5221 15.8955 26.3431 16.5302C25.0939 17.1922 23.6935 17.5277 22.2745 17.504H19.0437V24.9703H14.4917V1.93137L22.2745 1.95508C23.699 1.93137 25.1068 2.2797 26.3523 2.96359ZM24.0883 12.7952C24.592 12.5162 25.0072 12.1058 25.2895 11.608L25.2784 11.6007C25.5829 11.0645 25.736 10.459 25.725 9.84444C25.7416 9.18243 25.5866 8.5259 25.2784 7.93866C24.998 7.42255 24.5791 6.99033 24.0699 6.68942C23.5255 6.37757 22.9037 6.22073 22.2745 6.23714H19.0437V13.2292H22.2782C22.9093 13.2457 23.5348 13.0961 24.0883 12.7952Z" fill="#9A45E5"/>
</g>
<defs>
<clipPath id="clip0_401_1411">
<rect width="112" height="30" fill="white"/>
</clipPath>
</defs>
</svg>
