<svg width="14" height="13" viewBox="0 0 14 13" fill="none" xmlns="http://www.w3.org/2000/svg">
<path fill-rule="evenodd" clip-rule="evenodd" d="M8.84731 5.14286C8.84731 7.14632 7.21101 8.78572 5.17365 8.78572C3.13629 8.78572 1.5 7.14632 1.5 5.14286C1.5 3.13939 3.13629 1.5 5.17365 1.5C7.21101 1.5 8.84731 3.13939 8.84731 5.14286ZM8.64015 8.96063C7.72278 9.78423 6.50713 10.2857 5.17365 10.2857C2.31632 10.2857 0 7.98318 0 5.14286C0 2.30254 2.31632 0 5.17365 0C8.03098 0 10.3473 2.30254 10.3473 5.14286C10.3473 6.11621 10.0753 7.0264 9.60269 7.80242L13.2904 11.4682C13.5841 11.7602 13.5856 12.235 13.2935 12.5288C13.0015 12.8226 12.5267 12.824 12.2329 12.532L8.64015 8.96063Z" fill="#60779B"/>
</svg>
